<?xml version="1.0" encoding="UTF-8"?>
<svg id="Layer_1" data-name="Layer 1" xmlns="http://www.w3.org/2000/svg" viewBox="0 0 24 24">
  <defs>
    <style>
      .cls-1 {
        fill: #fff;
        font-family: Lato-Bold, Lato;
        font-size: 1.5px;
        font-weight: 700;
      }

      .cls-2 {
        fill: #777f7f;
        fill-rule: evenodd;
        stroke-width: 0px;
      }

      .cls-3 {
        fill: none;
        stroke: #fff;
        stroke-miterlimit: 10;
        stroke-width: .25px;
      }

      .cls-4 {
        letter-spacing: -.07em;
      }
    </style>
  </defs>
  <path class="cls-2" d="m3.26,12.37c0-.08-.06-.14-.14-.14s-.14.06-.14.14c0,.88-.01,1.56-.03,2.14-.03,1.58-.05,2.34.29,2.9.32.52.92.84,2.08,1.44.62.32,1.41.73,2.38,1.29.72.41,1.33.78,1.85,1.1,1.42.86,2.13,1.28,2.87,1.28h0c.74,0,1.45-.43,2.87-1.28.52-.31,1.14-.69,1.85-1.1.73-.42,1.35-.76,1.88-1.05,1.45-.79,2.18-1.19,2.55-1.83.37-.64.35-1.47.32-3.15-.01-.71-.02-1.41-.02-2.12,0,0,0,0,0-.01h0s0,0,0,0h0s0,0,0,0h0s0,0,0,0h0c0-.06-.06-.11-.11-.12h0s-.01,0-.02,0h0s0,0,0,0c-.07,0-.13.05-.14.12h0s0,0,0,0h0s0,0,0,0h0s0,0,0,0h0s0,.01,0,.01c0,.81.01,1.52.03,2.13.03,1.62.05,2.43-.28,3-.33.57-1.04.96-2.44,1.73-.52.29-1.14.63-1.88,1.05-.76.43-1.35.8-1.86,1.1-1.38.83-2.06,1.24-2.72,1.24h0c-.66,0-1.35-.42-2.72-1.24-.51-.31-1.1-.67-1.86-1.1-1-.57-1.78-.98-2.39-1.3-1.11-.58-1.69-.88-1.96-1.33-.3-.5-.29-1.23-.25-2.75.01-.6.03-1.32.03-2.15h0Zm-.28-.9c0,.08.06.14.14.14.08,0,.14-.06.14-.14v-.04s0-.07,0-.07v-.07s0-.07,0-.07v-.07s0-.07,0-.07v-.06s0-.06,0-.06v-.06c0-.08-.07-.14-.14-.14-.08,0-.14.07-.14.14v.06s0,.06,0,.06v.06s0,.07,0,.07v.07s0,.07,0,.07v.07s0,.07,0,.07v.04h0Zm-.02-1.41c0,.08.07.14.14.14.08,0,.14-.07.14-.14v-.04s0-.05,0-.05v-.05s0-.05,0-.05v-.05s0-.05,0-.05v-.05s0-.05,0-.05v-.05s0-.05,0-.05v-.05s0-.01,0-.01c0-.08-.07-.14-.14-.14-.08,0-.14.07-.14.14h0s0,.06,0,.06v.05s0,.05,0,.05v.05s0,.05,0,.05v.05s0,.05,0,.05v.05s0,.05,0,.05v.05s0,.04,0,.04h0Zm-.02-1.41c0,.08.06.14.14.14.08,0,.14-.06.14-.14h0s0-.05,0-.05v-.04s0-.04,0-.04v-.04s0-.04,0-.04v-.04s0-.04,0-.04v-.04s0-.04,0-.04v-.03s0-.03,0-.03v-.03s0-.03,0-.03v-.03s0-.03,0-.03v-.02c0-.08-.05-.14-.13-.15-.08,0-.14.06-.15.13v.02s0,.03,0,.03v.03s0,.03,0,.03v.03s0,.04,0,.04v.04s0,.04,0,.04v.04s0,.04,0,.04v.04s0,.04,0,.04v.04s0,.04,0,.04v.04s0,.04,0,.04h0Zm.14-1.44c-.02.08.02.15.1.17.08.02.15-.02.17-.1h0s0-.03,0-.03v-.02s.01-.02.01-.02v-.02s.01-.02.01-.02v-.02s.01-.02.01-.02v-.02s.02-.02.02-.02v-.02s.02-.02.02-.02v-.02s.02-.02.02-.02v-.02s.02-.02.02-.02v-.02s.02-.02.02-.02v-.02s.02-.02.02-.02v-.02s.02-.02.02-.02v-.02s.02-.02.02-.02v-.02s.02,0,.02,0c.04-.07.02-.15-.04-.2-.07-.04-.15-.02-.2.04h0s-.01.03-.01.03v.02s-.02.02-.02.02v.02s-.02.02-.02.02v.02s-.02.02-.02.02v.02s-.02.02-.02.02v.02s-.02.02-.02.02v.02s-.02.02-.02.02v.02s-.02.02-.02.02v.02s-.02.02-.02.02v.02s-.02.02-.02.02v.02s-.02.02-.02.02v.02s-.01.02-.01.02v.02s0,0,0,0h0Zm.87-1.19c-.06.05-.07.14-.03.2s.14.07.2.03h0s.02-.02.02-.02l.02-.02.02-.02.02-.02.02-.02.02-.02.02-.02.02-.02.03-.02.03-.02.03-.02.03-.02.03-.02.03-.02.03-.02.03-.02.03-.02.03-.02h0c.07-.04.09-.13.05-.19-.04-.07-.13-.09-.19-.05h0s-.03.02-.03.02l-.03.02-.03.02-.03.02-.03.02-.03.02-.03.02-.03.02-.03.02-.03.02-.03.02-.03.02-.03.02-.02.02-.02.02-.02.02-.02.02-.02.02h0Zm1.22-.75c-.07.04-.09.12-.05.19.04.07.12.09.19.05h0s.04-.03.04-.03l.04-.02.04-.02.04-.02.04-.02.04-.02.04-.02.04-.02.04-.02.04-.02.04-.02.03-.02c.07-.04.09-.12.06-.19-.04-.07-.12-.09-.19-.06l-.03.02-.04.02-.04.02-.04.02-.04.02-.04.02-.04.02-.04.02-.04.02-.04.02-.04.02-.04.02h0Zm1.24-.68c-.07.04-.09.12-.06.19s.12.09.19.06l.04-.02.05-.03.05-.03.05-.03.05-.03.05-.03.06-.03.06-.03.06-.03h.02c.07-.05.09-.14.05-.21-.04-.07-.12-.09-.19-.05h-.02s-.06.04-.06.04l-.06.03-.05.03-.05.03-.05.03-.05.03-.05.03-.05.03-.04.02h0Zm1.23-.69c-.07.04-.09.13-.05.19.04.07.13.09.19.05h.02s.06-.05.06-.05l.06-.04.06-.04.06-.04.06-.04.06-.04.06-.04.03-.02c.07-.04.09-.13.05-.19-.04-.07-.13-.09-.19-.05l-.03.02-.06.04-.06.04-.06.04-.06.04-.06.04-.06.04-.06.04h-.02Zm1.22-.71c-.07.04-.09.13-.05.19.04.07.13.09.19.05l.03-.02.05-.03.05-.03.05-.03.05-.03.05-.03.05-.03.05-.03.05-.03.05-.03h.01c.07-.05.09-.13.05-.2-.04-.07-.13-.09-.19-.05h-.01s-.05.04-.05.04l-.05.03-.05.03-.05.03-.05.03-.05.03-.05.03-.05.03-.05.03-.03.02h0Zm1.21-.73c-.07.04-.09.13-.05.19.04.07.13.09.19.05h0s.04-.02.04-.02l.04-.02.04-.02.04-.02.04-.02.04-.02.04-.02.04-.02.04-.02.04-.02.04-.02.03-.02.03-.02h0c.07-.04.09-.13.05-.2-.04-.07-.13-.09-.19-.05h0s-.03.02-.03.02l-.04.02-.04.02-.04.02-.04.02-.04.02-.04.02-.04.02-.04.02-.04.02-.04.02-.04.02-.04.02h0Zm1.25-.69c-.07.03-.1.12-.07.19.03.07.12.1.19.07h.02s.03-.02.03-.02h.03s.03-.02.03-.02h.03s.03-.02.03-.02h.03s.03-.02.03-.02h.02s.02-.02.02-.02h.02s.02-.02.02-.02h.02s.02-.02.02-.02h.02s.02-.02.02-.02h.02s.02-.02.02-.02h.02s.02-.01.02-.01h.02s0,0,0,0c.08-.02.12-.1.1-.17-.02-.08-.1-.12-.17-.1h0s-.03,0-.03,0h-.03s-.03.02-.03.02h-.03s-.03.02-.03.02h-.03s-.03.02-.03.02h-.03s-.03.02-.03.02h-.03s-.03.02-.03.02h-.03s-.03.02-.03.02h-.03s-.03.02-.03.02h-.03s-.03.02-.03.02h-.03s-.03.02-.03.02h-.03s-.02.02-.02.02h0Zm1.45-.27c-.08-.01-.15.04-.16.12-.01.08.04.15.12.16h0s.02,0,.02,0h.02s.02,0,.02,0h.02s.02,0,.02,0h.02s.02.01.02.01h.02s.02.01.02.01h.02s.02.01.02.01h.02s.02.01.02.01h.02s.02.01.02.01h.02s.02.02.02.02h.02s.02.02.02.02h.02s.02.02.02.02h.02s.01.01.01.01c.07.03.15,0,.18-.08.03-.07,0-.15-.08-.18h-.01s-.03-.02-.03-.02h-.03s-.03-.02-.03-.02h-.03s-.03-.02-.03-.02h-.03s-.03-.02-.03-.02h-.03s-.03-.02-.03-.02h-.03s-.03-.02-.03-.02h-.03s-.02-.01-.02-.01h-.02s-.03-.01-.03-.01h-.02s-.02-.01-.02-.01h-.02s-.02-.01-.02-.01h-.02s-.02,0-.02,0h-.02s0,0,0,0h0Zm1.35.55c-.07-.04-.15-.01-.19.05-.04.07-.01.15.05.19h0s.03.02.03.02l.03.02.03.02.03.02.03.02.03.02.03.02.03.02.03.02.04.02.04.02.04.02.04.02.04.02h0c.07.04.15.02.19-.05.04-.07.02-.15-.05-.19h0s-.04-.02-.04-.02l-.04-.02-.04-.02-.04-.02-.04-.02-.04-.02-.03-.02-.03-.02-.03-.02-.03-.02-.03-.02-.03-.02-.03-.02-.03-.02h0Zm1.22.72c-.07-.04-.15-.02-.19.05-.04.07-.02.15.05.19h0s.05.03.05.03l.05.03.05.03.05.03.05.03.05.03.05.03.05.03.05.03.05.03h0c.07.04.15.02.19-.05.04-.07.02-.15-.05-.19h0s-.05-.03-.05-.03l-.05-.03-.05-.03-.05-.03-.05-.03-.05-.03-.05-.03-.05-.03-.05-.03-.05-.03h0Zm1.21.72c-.07-.04-.15-.02-.19.05-.04.07-.02.15.05.19h.02s.06.05.06.05l.06.03.06.03.06.04.06.04.06.04.06.04.04.03c.07.04.15.02.19-.05.04-.07.02-.15-.05-.19l-.04-.02-.06-.04-.06-.04-.06-.04-.06-.03-.06-.03-.06-.03-.06-.03h-.02Zm1.22.7c-.07-.04-.15-.01-.19.05-.04.07-.01.15.05.19h.02s.06.05.06.05l.06.03.06.03.06.03.06.03.06.03.06.03.05.03h.02c.07.05.15.02.19-.05s.01-.15-.06-.19h-.02s-.05-.04-.05-.04l-.05-.03-.06-.03-.06-.03-.06-.03-.06-.03-.06-.03-.06-.03h-.02Zm1.23.68c-.07-.04-.15-.01-.19.06-.04.07-.01.15.06.19l.04.02.05.03.05.02.04.02.04.02.04.02.04.02.04.02.04.02.04.02.04.02h.02c.07.05.15.02.19-.05.04-.07.01-.15-.06-.19h-.02s-.04-.03-.04-.03l-.04-.02-.04-.02-.04-.02-.04-.02-.04-.02-.04-.02-.04-.02-.05-.02-.05-.03-.04-.02h0Zm1.24.69c-.07-.04-.15-.02-.19.05-.04.07-.02.15.05.19h.01s.03.03.03.03l.03.02.03.02.03.02.03.02.03.02.03.02.03.02.03.02.03.02.03.02.03.02.03.02.03.02.03.02.03.02h0c.06.05.15.03.2-.04.04-.06.03-.15-.04-.2h0s-.03-.02-.03-.02l-.03-.02-.03-.02-.03-.02-.03-.02-.03-.02-.03-.02-.03-.02-.03-.02-.03-.02-.03-.02-.03-.02-.03-.02-.03-.02-.03-.02-.03-.02h-.01Zm1.16.87c-.05-.06-.14-.07-.2-.01-.06.05-.07.14-.01.2h0s.01.02.01.02v.02s.03.02.03.02v.02s.03.02.03.02v.02s.03.02.03.02v.02s.02.02.02.02v.02s.02.02.02.02v.02s.02.02.02.02v.02s.02.02.02.02v.02s.02.02.02.02v.02s.02.02.02.02v.02s.02.02.02.02v.02s.02.02.02.02v.02s.02.02.02.02c.03.07.11.11.18.08.07-.03.11-.11.08-.18v-.02s-.02-.02-.02-.02v-.02s-.02-.02-.02-.02v-.02s-.02-.02-.02-.02v-.02s-.02-.02-.02-.02v-.02s-.02-.02-.02-.02v-.02s-.02-.02-.02-.02v-.02s-.03-.02-.03-.02v-.02s-.03-.02-.03-.02v-.02s-.03-.02-.03-.02v-.02s-.03-.02-.03-.02l-.02-.02-.02-.02-.02-.02-.02-.02-.02-.02h0Zm.52,1.38c0-.08-.08-.13-.15-.13-.08,0-.13.08-.13.15v.03s0,.03,0,.03v.03s0,.03,0,.03v.03s0,.03,0,.03v.03s0,.03,0,.03v.03s0,.03,0,.03v.03s0,.03,0,.03v.03s0,.03,0,.03v.03s0,.04,0,.04v.04s0,0,0,0c0,.08.07.14.14.14.08,0,.14-.07.14-.14h0s0-.05,0-.05v-.04s0-.04,0-.04v-.04s0-.03,0-.03v-.03s0-.03,0-.03v-.03s0-.03,0-.03v-.03s0-.03,0-.03v-.03s0-.03,0-.03v-.03s0-.03,0-.03v-.03s0-.03,0-.03h0Zm.03,1.43c0-.08-.06-.14-.14-.14-.08,0-.14.06-.14.14v.04s0,.05,0,.05v.05s0,.05,0,.05v.05s0,.05,0,.05v.05s0,.05,0,.05v.05s0,.05,0,.05v.05s0,.04,0,.04c0,.08.06.14.14.14.08,0,.14-.06.14-.14v-.04s0-.05,0-.05v-.05s0-.05,0-.05v-.05s0-.05,0-.05v-.05s0-.05,0-.05v-.05s0-.05,0-.05v-.05s0-.04,0-.04h0Zm-.03,1.41c0-.08-.06-.14-.14-.14-.08,0-.14.06-.14.14h0s0,.07,0,.07v.06s0,.06,0,.06v.06s0,.06,0,.06v.06s0,.06,0,.06v.07s0,.05,0,.05c0,.08.06.14.14.14.08,0,.14-.06.14-.14v-.05s0-.07,0-.07v-.06s0-.06,0-.06v-.06s0-.06,0-.06v-.06s0-.06,0-.06v-.06s0-.01,0-.01Z"/>
  <path class="cls-2" d="m16.23,5.46c4.48,2.57,3.8,1.4,3.8,6.56s.67,3.99-3.8,6.56c-4.48,2.58-3.12,2.58-7.61,0-4.48-2.57-3.8-1.4-3.8-6.56s-.67-3.99,3.8-6.56c4.48-2.58,3.12-2.58,7.61,0Z"/>
  <text class="cls-1" transform="translate(8.87 15.37)"><tspan x="0" y="0">CONTENT</tspan><tspan x="-.19" y="1.32">CRE</tspan><tspan class="cls-4" x="2.66" y="1.32">A</tspan><tspan x="3.61" y="1.32">TION</tspan></text>
  <g>
    <rect class="cls-3" x="10.48" y="7.09" width="3.88" height="5.27" rx="1" ry="1"/>
    <line class="cls-3" x1="10.81" y1="7.84" x2="13.99" y2="7.84"/>
    <line class="cls-3" x1="10.81" y1="8.32" x2="12.25" y2="8.32"/>
    <line class="cls-3" x1="10.81" y1="8.81" x2="12.25" y2="8.81"/>
    <line class="cls-3" x1="12.54" y1="10.82" x2="13.99" y2="10.82"/>
    <line class="cls-3" x1="12.54" y1="11.3" x2="13.99" y2="11.3"/>
    <line class="cls-3" x1="10.81" y1="9.3" x2="13.99" y2="9.3"/>
    <line class="cls-3" x1="10.81" y1="9.78" x2="13.99" y2="9.78"/>
    <line class="cls-3" x1="10.81" y1="10.26" x2="13.99" y2="10.26"/>
    <line class="cls-3" x1="10.83" y1="11.79" x2="14.02" y2="11.79"/>
  </g>
</svg>