<?xml version="1.0" encoding="UTF-8"?>
<svg id="Layer_1" data-name="Layer 1" xmlns="http://www.w3.org/2000/svg" viewBox="0 0 24 24">
  <defs>
    <style>
      .cls-1 {
        letter-spacing: -.07em;
      }

      .cls-2 {
        font-family: Lato-Bold, Lato;
        font-size: 1.5px;
        font-weight: 700;
      }

      .cls-2, .cls-3 {
        fill: #fff;
      }

      .cls-4 {
        fill: #616465;
        fill-rule: evenodd;
      }

      .cls-4, .cls-3 {
        stroke-width: 0px;
      }

      .cls-5 {
        letter-spacing: -.07em;
      }
    </style>
  </defs>
  <g>
    <path class="cls-4" d="m2.84,12.36c0-.08-.06-.14-.14-.14s-.14.06-.14.14c0,.88-.01,1.56-.03,2.14-.03,1.58-.05,2.34.29,2.9.32.52.92.84,2.08,1.44.62.32,1.41.73,2.38,1.29.72.41,1.33.78,1.85,1.1,1.42.86,2.13,1.28,2.87,1.28h0c.74,0,1.45-.43,2.87-1.28.52-.31,1.14-.69,1.85-1.1.73-.42,1.35-.76,1.88-1.05,1.45-.79,2.18-1.19,2.55-1.83.37-.64.35-1.47.32-3.15-.01-.71-.02-1.41-.02-2.12,0,0,0,0,0-.01h0s0,0,0,0h0s0,0,0,0h0s0,0,0,0h0c0-.06-.06-.11-.11-.12h0s-.01,0-.02,0h0s0,0,0,0c-.07,0-.13.05-.14.12h0s0,0,0,0h0s0,0,0,0h0s0,0,0,0h0s0,.01,0,.01c0,.81.01,1.52.03,2.13.03,1.62.05,2.43-.28,3-.33.57-1.04.96-2.44,1.73-.52.29-1.14.63-1.88,1.05-.76.43-1.35.8-1.86,1.1-1.38.83-2.06,1.24-2.72,1.24h0c-.66,0-1.35-.42-2.72-1.24-.51-.31-1.1-.67-1.86-1.1-1-.57-1.78-.98-2.39-1.3-1.11-.58-1.69-.88-1.96-1.33-.3-.5-.29-1.23-.25-2.75.01-.6.03-1.32.03-2.15h0Zm-.28-.9c0,.08.06.14.14.14.08,0,.14-.06.14-.14v-.04s0-.07,0-.07v-.07s0-.07,0-.07v-.07s0-.07,0-.07v-.06s0-.06,0-.06v-.06c0-.08-.07-.14-.14-.14-.08,0-.14.07-.14.14v.06s0,.06,0,.06v.06s0,.07,0,.07v.07s0,.07,0,.07v.07s0,.07,0,.07v.04h0Zm-.02-1.41c0,.08.07.14.14.14.08,0,.14-.07.14-.14v-.04s0-.05,0-.05v-.05s0-.05,0-.05v-.05s0-.05,0-.05v-.05s0-.05,0-.05v-.05s0-.05,0-.05v-.05s0-.01,0-.01c0-.08-.07-.14-.14-.14-.08,0-.14.07-.14.14h0s0,.06,0,.06v.05s0,.05,0,.05v.05s0,.05,0,.05v.05s0,.05,0,.05v.05s0,.05,0,.05v.05s0,.04,0,.04h0Zm-.02-1.41c0,.08.06.14.14.14.08,0,.14-.06.14-.14h0s0-.05,0-.05v-.04s0-.04,0-.04v-.04s0-.04,0-.04v-.04s0-.04,0-.04v-.04s0-.04,0-.04v-.03s0-.03,0-.03v-.03s0-.03,0-.03v-.03s0-.03,0-.03v-.02c0-.08-.05-.14-.13-.15-.08,0-.14.06-.15.13v.02s0,.03,0,.03v.03s0,.03,0,.03v.03s0,.04,0,.04v.04s0,.04,0,.04v.04s0,.04,0,.04v.04s0,.04,0,.04v.04s0,.04,0,.04v.04s0,.04,0,.04h0Zm.14-1.44c-.02.08.02.15.1.17.08.02.15-.02.17-.1h0s0-.03,0-.03v-.02s.01-.02.01-.02v-.02s.01-.02.01-.02v-.02s.01-.02.01-.02v-.02s.02-.02.02-.02v-.02s.02-.02.02-.02v-.02s.02-.02.02-.02v-.02s.02-.02.02-.02v-.02s.02-.02.02-.02v-.02s.02-.02.02-.02v-.02s.02-.02.02-.02v-.02s.02-.02.02-.02v-.02s.02,0,.02,0c.04-.07.02-.15-.04-.2-.07-.04-.15-.02-.2.04h0s-.01.03-.01.03v.02s-.02.02-.02.02v.02s-.02.02-.02.02v.02s-.02.02-.02.02v.02s-.02.02-.02.02v.02s-.02.02-.02.02v.02s-.02.02-.02.02v.02s-.02.02-.02.02v.02s-.02.02-.02.02v.02s-.02.02-.02.02v.02s-.02.02-.02.02v.02s-.01.02-.01.02v.02s0,0,0,0h0Zm.87-1.19c-.06.05-.07.14-.03.2s.14.07.2.03h0s.02-.02.02-.02l.02-.02.02-.02.02-.02.02-.02.02-.02.02-.02.02-.02.03-.02.03-.02.03-.02.03-.02.03-.02.03-.02.03-.02.03-.02.03-.02.03-.02h0c.07-.04.09-.13.05-.19-.04-.07-.13-.09-.19-.05h0s-.03.02-.03.02l-.03.02-.03.02-.03.02-.03.02-.03.02-.03.02-.03.02-.03.02-.03.02-.03.02-.03.02-.03.02-.02.02-.02.02-.02.02-.02.02-.02.02h0Zm1.22-.75c-.07.04-.09.12-.05.19.04.07.12.09.19.05h0s.04-.03.04-.03l.04-.02.04-.02.04-.02.04-.02.04-.02.04-.02.04-.02.04-.02.04-.02.04-.02.03-.02c.07-.04.09-.12.06-.19-.04-.07-.12-.09-.19-.06l-.03.02-.04.02-.04.02-.04.02-.04.02-.04.02-.04.02-.04.02-.04.02-.04.02-.04.02-.04.02h0Zm1.24-.68c-.07.04-.09.12-.06.19s.12.09.19.06l.04-.02.05-.03.05-.03.05-.03.05-.03.05-.03.06-.03.06-.03.06-.03h.02c.07-.05.09-.14.05-.21-.04-.07-.12-.09-.19-.05h-.02s-.06.04-.06.04l-.06.03-.05.03-.05.03-.05.03-.05.03-.05.03-.05.03-.04.02h0Zm1.23-.69c-.07.04-.09.13-.05.19.04.07.13.09.19.05h.02s.06-.05.06-.05l.06-.04.06-.04.06-.04.06-.04.06-.04.06-.04.03-.02c.07-.04.09-.13.05-.19-.04-.07-.13-.09-.19-.05l-.03.02-.06.04-.06.04-.06.04-.06.04-.06.04-.06.04-.06.04h-.02Zm1.22-.71c-.07.04-.09.13-.05.19.04.07.13.09.19.05l.03-.02.05-.03.05-.03.05-.03.05-.03.05-.03.05-.03.05-.03.05-.03.05-.03h.01c.07-.05.09-.13.05-.2-.04-.07-.13-.09-.19-.05h-.01s-.05.04-.05.04l-.05.03-.05.03-.05.03-.05.03-.05.03-.05.03-.05.03-.05.03-.03.02h0Zm1.21-.73c-.07.04-.09.13-.05.19.04.07.13.09.19.05h0s.04-.02.04-.02l.04-.02.04-.02.04-.02.04-.02.04-.02.04-.02.04-.02.04-.02.04-.02.04-.02.03-.02.03-.02h0c.07-.04.09-.13.05-.2-.04-.07-.13-.09-.19-.05h0s-.03.02-.03.02l-.04.02-.04.02-.04.02-.04.02-.04.02-.04.02-.04.02-.04.02-.04.02-.04.02-.04.02-.04.02h0Zm1.25-.69c-.07.03-.1.12-.07.19.03.07.12.1.19.07h.02s.03-.02.03-.02h.03s.03-.02.03-.02h.03s.03-.02.03-.02h.03s.03-.02.03-.02h.02s.02-.02.02-.02h.02s.02-.02.02-.02h.02s.02-.02.02-.02h.02s.02-.02.02-.02h.02s.02-.02.02-.02h.02s.02-.01.02-.01h.02s0,0,0,0c.08-.02.12-.1.1-.17-.02-.08-.1-.12-.17-.1h0s-.03,0-.03,0h-.03s-.03.02-.03.02h-.03s-.03.02-.03.02h-.03s-.03.02-.03.02h-.03s-.03.02-.03.02h-.03s-.03.02-.03.02h-.03s-.03.02-.03.02h-.03s-.03.02-.03.02h-.03s-.03.02-.03.02h-.03s-.03.02-.03.02h-.03s-.02.02-.02.02h0Zm1.45-.27c-.08-.01-.15.04-.16.12-.01.08.04.15.12.16h0s.02,0,.02,0h.02s.02,0,.02,0h.02s.02,0,.02,0h.02s.02.01.02.01h.02s.02.01.02.01h.02s.02.01.02.01h.02s.02.01.02.01h.02s.02.01.02.01h.02s.02.02.02.02h.02s.02.02.02.02h.02s.02.02.02.02h.02s.01.01.01.01c.07.03.15,0,.18-.08.03-.07,0-.15-.08-.18h-.01s-.03-.02-.03-.02h-.03s-.03-.02-.03-.02h-.03s-.03-.02-.03-.02h-.03s-.03-.02-.03-.02h-.03s-.03-.02-.03-.02h-.03s-.03-.02-.03-.02h-.03s-.02-.01-.02-.01h-.02s-.03-.01-.03-.01h-.02s-.02-.01-.02-.01h-.02s-.02-.01-.02-.01h-.02s-.02,0-.02,0h-.02s0,0,0,0h0Zm1.35.55c-.07-.04-.15-.01-.19.05-.04.07-.01.15.05.19h0s.03.02.03.02l.03.02.03.02.03.02.03.02.03.02.03.02.03.02.03.02.04.02.04.02.04.02.04.02.04.02h0c.07.04.15.02.19-.05.04-.07.02-.15-.05-.19h0s-.04-.02-.04-.02l-.04-.02-.04-.02-.04-.02-.04-.02-.04-.02-.03-.02-.03-.02-.03-.02-.03-.02-.03-.02-.03-.02-.03-.02-.03-.02h0Zm1.22.72c-.07-.04-.15-.02-.19.05-.04.07-.02.15.05.19h0s.05.03.05.03l.05.03.05.03.05.03.05.03.05.03.05.03.05.03.05.03.05.03h0c.07.04.15.02.19-.05.04-.07.02-.15-.05-.19h0s-.05-.03-.05-.03l-.05-.03-.05-.03-.05-.03-.05-.03-.05-.03-.05-.03-.05-.03-.05-.03-.05-.03h0Zm1.21.72c-.07-.04-.15-.02-.19.05-.04.07-.02.15.05.19h.02s.06.05.06.05l.06.03.06.03.06.04.06.04.06.04.06.04.04.03c.07.04.15.02.19-.05.04-.07.02-.15-.05-.19l-.04-.02-.06-.04-.06-.04-.06-.04-.06-.03-.06-.03-.06-.03-.06-.03h-.02Zm1.22.7c-.07-.04-.15-.01-.19.05-.04.07-.01.15.05.19h.02s.06.05.06.05l.06.03.06.03.06.03.06.03.06.03.06.03.05.03h.02c.07.05.15.02.19-.05s.01-.15-.06-.19h-.02s-.05-.04-.05-.04l-.05-.03-.06-.03-.06-.03-.06-.03-.06-.03-.06-.03-.06-.03h-.02Zm1.23.68c-.07-.04-.15-.01-.19.06-.04.07-.01.15.06.19l.04.02.05.03.05.02.04.02.04.02.04.02.04.02.04.02.04.02.04.02.04.02h.02c.07.05.15.02.19-.05.04-.07.01-.15-.06-.19h-.02s-.04-.03-.04-.03l-.04-.02-.04-.02-.04-.02-.04-.02-.04-.02-.04-.02-.04-.02-.05-.02-.05-.03-.04-.02h0Zm1.24.69c-.07-.04-.15-.02-.19.05-.04.07-.02.15.05.19h.01s.03.03.03.03l.03.02.03.02.03.02.03.02.03.02.03.02.03.02.03.02.03.02.03.02.03.02.03.02.03.02.03.02.03.02h0c.06.05.15.03.2-.04.04-.06.03-.15-.04-.2h0s-.03-.02-.03-.02l-.03-.02-.03-.02-.03-.02-.03-.02-.03-.02-.03-.02-.03-.02-.03-.02-.03-.02-.03-.02-.03-.02-.03-.02-.03-.02-.03-.02-.03-.02h-.01Zm1.16.87c-.05-.06-.14-.07-.2-.01-.06.05-.07.14-.01.2h0s.01.02.01.02v.02s.03.02.03.02v.02s.03.02.03.02v.02s.03.02.03.02v.02s.02.02.02.02v.02s.02.02.02.02v.02s.02.02.02.02v.02s.02.02.02.02v.02s.02.02.02.02v.02s.02.02.02.02v.02s.02.02.02.02v.02s.02.02.02.02v.02s.02.02.02.02c.03.07.11.11.18.08.07-.03.11-.11.08-.18v-.02s-.02-.02-.02-.02v-.02s-.02-.02-.02-.02v-.02s-.02-.02-.02-.02v-.02s-.02-.02-.02-.02v-.02s-.02-.02-.02-.02v-.02s-.02-.02-.02-.02v-.02s-.03-.02-.03-.02v-.02s-.03-.02-.03-.02v-.02s-.03-.02-.03-.02v-.02s-.03-.02-.03-.02l-.02-.02-.02-.02-.02-.02-.02-.02-.02-.02h0Zm.52,1.38c0-.08-.08-.13-.15-.13-.08,0-.13.08-.13.15v.03s0,.03,0,.03v.03s0,.03,0,.03v.03s0,.03,0,.03v.03s0,.03,0,.03v.03s0,.03,0,.03v.03s0,.03,0,.03v.03s0,.03,0,.03v.03s0,.04,0,.04v.04s0,0,0,0c0,.08.07.14.14.14.08,0,.14-.07.14-.14h0s0-.05,0-.05v-.04s0-.04,0-.04v-.04s0-.03,0-.03v-.03s0-.03,0-.03v-.03s0-.03,0-.03v-.03s0-.03,0-.03v-.03s0-.03,0-.03v-.03s0-.03,0-.03v-.03s0-.03,0-.03h0Zm.03,1.43c0-.08-.06-.14-.14-.14-.08,0-.14.06-.14.14v.04s0,.05,0,.05v.05s0,.05,0,.05v.05s0,.05,0,.05v.05s0,.05,0,.05v.05s0,.05,0,.05v.05s0,.04,0,.04c0,.08.06.14.14.14.08,0,.14-.06.14-.14v-.04s0-.05,0-.05v-.05s0-.05,0-.05v-.05s0-.05,0-.05v-.05s0-.05,0-.05v-.05s0-.05,0-.05v-.05s0-.04,0-.04h0Zm-.03,1.41c0-.08-.06-.14-.14-.14-.08,0-.14.06-.14.14h0s0,.07,0,.07v.06s0,.06,0,.06v.06s0,.06,0,.06v.06s0,.06,0,.06v.07s0,.05,0,.05c0,.08.06.14.14.14.08,0,.14-.06.14-.14v-.05s0-.07,0-.07v-.06s0-.06,0-.06v-.06s0-.06,0-.06v-.06s0-.06,0-.06v-.06s0-.01,0-.01Z"/>
    <path class="cls-4" d="m15.8,5.45c4.48,2.57,3.8,1.4,3.8,6.56s.67,3.99-3.8,6.56c-4.48,2.58-3.12,2.58-7.61,0-4.48-2.57-3.8-1.4-3.8-6.56s-.67-3.99,3.8-6.56c4.48-2.58,3.12-2.58,7.61,0Z"/>
  </g>
  <text class="cls-2" transform="translate(8.97 15.36)"><tspan x="0" y="0">DIGI</tspan><tspan class="cls-5" x="3.15" y="0">T</tspan><tspan x="3.93" y="0">AL </tspan><tspan x="-2.59" y="1.32">ILLUSTR</tspan><tspan class="cls-1" x="3.2" y="1.32">A</tspan><tspan x="4.15" y="1.32">TIONS</tspan></text>
  <g>
    <path class="cls-3" d="m12.21,7.05c-1.47,0-2.66,1.19-2.66,2.66,0,.65.23,1.24.62,1.71.24.28.53.51.86.68.35.18.75.27,1.18.27,1.47,0,2.66-1.19,2.66-2.66s-1.19-2.66-2.66-2.66Zm0,4.85c-.27,0-.52-.05-.76-.14-.44-.16-.81-.46-1.06-.84-.24-.35-.37-.77-.37-1.23,0-1.21.98-2.2,2.2-2.2s2.2.98,2.2,2.2-.98,2.2-2.2,2.2Z"/>
    <path class="cls-3" d="m13.26,10l.08-1.53-.51.69c.07.07.11.16.12.26.03.25-.16.47-.41.5-.25.03-.47-.16-.5-.41s.16-.47.41-.5c.11-.01.22.02.3.08l.51-.68-1.46.42-.24,1.07.66.54,1.04-.44Z"/>
    <path class="cls-3" d="m12.04,10.87l-.38-.31.11-.13.3.25.02-.14-.64-.51-.41.19.97.8.03-.16Zm-.55-.45l-.16-.13.11-.13.16.13-.11.13Z"/>
    <path class="cls-3" d="m11.5,11.71l.42-.55-1.03-.84-.45.55c.26.38.63.67,1.06.84Z"/>
    <circle class="cls-3" cx="12.49" cy="9.46" r=".33"/>
  </g>
</svg>